# xmcd
#
# Track frame offsets:
#       150
#       14097
#       26160
#       37252
#       48920
#       64925
#       76125
#       84575
#       99980
#       110382
#       124607
#       138975
#       150455
#       167657
#       175485
#       187715
#       201705
#       215760
#
# Disc length: 3036 seconds
#
# Revision: 1
# Processed by: cddbd v1.5.2PL0 Copyright (c) Steve Scherf et al.
# Submitted via: FreeDbEdit v0.1
#
DISCID=fa0bda12
DTITLE=Various Artist - A Country Christmas
DYEAR=1900
DGENRE=Christmas
TTITLE0=Glen Campbell - The Christmas Song
TTITLE1=Tammy Wynette - White Christmas 
TTITLE2=Elvis Presley - Silver Bells
TTITLE3=Johnny Cash - Little Drummer Boy
TTITLE4=Alabama - Christmas in Dixie
TTITLE5=Willie Nelson - Pretty Paper
TTITLE6=Charley Pride - Let It Snow, Let It Snow, Let It Snow
TTITLE7=Louise Mandrell - I've Got What You Want for Christmas
TTITLE8=George Jones - Jingle Bells
TTITLE9=Anne Murray - Oh Holy Night
TTITLE10=Jim Reeves - Mary's Boy Child
TTITLE11=Merle Haggard - Silent Night
TTITLE12=Dolly Parton - Hard Candy Christmas
TTITLE13=Slim Whitman - Joy to the World
TTITLE14=Chet Atkins - Winter Wonderland
TTITLE15=The Judds - Who Is This Babe
TTITLE16=Earl Thomas Conley - Blue Christmas
TTITLE17=Marty Robbins - Merry Christmas From Me to You
EXTD=
EXTT0=
EXTT1=
EXTT2=
EXTT3=
EXTT4=
EXTT5=
EXTT6=
EXTT7=
EXTT8=
EXTT9=
EXTT10=
EXTT11=
EXTT12=
EXTT13=
EXTT14=
EXTT15=
EXTT16=
EXTT17=
PLAYORDER=
